<svg width="94" height="36" viewBox="0 0 94 36" fill="none" xmlns="http://www.w3.org/2000/svg">
<path d="M13.5077 7.95761C13.4159 7.04839 13.0218 6.34204 12.3256 5.83859C11.6294 5.33513 10.6845 5.0834 9.49095 5.0834C8.67995 5.0834 7.9952 5.19612 7.43668 5.42155C6.87817 5.63946 6.44972 5.94379 6.15133 6.33453C5.8606 6.72527 5.71523 7.16861 5.71523 7.66456C5.69993 8.07784 5.78791 8.43853 5.97918 8.74661C6.17811 9.0547 6.44971 9.32145 6.79401 9.54688C7.1383 9.76479 7.53614 9.95641 7.98755 10.1217C8.43895 10.2795 8.92096 10.4148 9.43357 10.5275L11.5452 11.0234C12.5704 11.2489 13.5115 11.5494 14.3684 11.9251C15.2253 12.3009 15.9674 12.763 16.5948 13.3115C17.2222 13.8601 17.708 14.5063 18.0523 15.2502C18.4043 15.9941 18.5841 16.847 18.5917 17.8088C18.5841 19.2215 18.2168 20.4463 17.49 21.4833C16.7708 22.5128 15.7303 23.313 14.3684 23.8841C13.0142 24.4477 11.3807 24.7295 9.468 24.7295C7.57057 24.7295 5.91798 24.4439 4.51021 23.8728C3.11009 23.3018 2.01601 22.4564 1.22797 21.3368C0.447578 20.2096 0.0382546 18.8157 0 17.1551H4.8086C4.86215 17.929 5.08785 18.5753 5.4857 19.0938C5.8912 19.6047 6.43059 19.9917 7.10387 20.2547C7.7848 20.5102 8.55371 20.6379 9.41062 20.6379C10.2522 20.6379 10.9829 20.5177 11.6026 20.2773C12.23 20.0368 12.7158 19.7024 13.0601 19.2741C13.4044 18.8458 13.5765 18.3536 13.5765 17.7975C13.5765 17.2791 13.4197 16.8432 13.106 16.4901C12.8 16.1369 12.3486 15.8363 11.7518 15.5884C11.1627 15.3404 10.4397 15.115 9.58276 14.9121L7.02353 14.2809C5.04195 13.8075 3.47734 13.0673 2.3297 12.0604C1.18207 11.0535 0.612073 9.69716 0.619724 7.99143C0.612073 6.59377 0.990792 5.3727 1.75588 4.32822C2.52862 3.28374 3.58828 2.46844 4.93483 1.88233C6.28139 1.29621 7.81158 1.00316 9.52538 1.00316C11.2698 1.00316 12.7923 1.29621 14.093 1.88233C15.4013 2.46844 16.4188 3.28374 17.1457 4.32822C17.8725 5.3727 18.2474 6.5825 18.2704 7.95761H13.5077Z" fill="#F2F2F2"/>
<path d="M46.551 1.31875V24.4026H41.6621V1.31875H46.551Z" fill="#F2F2F2"/>
<path d="M66.9014 7.08971L60.7386 24.4026H55.23L49.0672 7.08971H54.2315L57.8925 19.477H58.0761L61.7256 7.08971H66.9014Z" fill="#F2F2F2"/>
<path d="M69.4033 24.4026V7.08971H74.2922V24.4026H69.4033ZM71.8592 4.85798C71.1324 4.85798 70.5088 4.62128 69.9886 4.14788C69.476 3.66696 69.2197 3.09212 69.2197 2.42335C69.2197 1.7621 69.476 1.19477 69.9886 0.721371C70.5088 0.240457 71.1324 0 71.8592 0C72.5861 0 73.2058 0.240457 73.7184 0.721371C74.2387 1.19477 74.4988 1.7621 74.4988 2.42335C74.4988 3.09212 74.2387 3.66696 73.7184 4.14788C73.2058 4.62128 72.5861 4.85798 71.8592 4.85798Z" fill="#F2F2F2"/>
<path d="M82.2941 7.08971L85.5304 13.1425L88.8471 7.08971H93.8623L88.7553 15.7462L94 24.4026H89.0078L85.5304 18.4175L82.1105 24.4026H77.0609L82.2941 15.7462L77.2445 7.08971H82.2941Z" fill="#F2F2F2"/>
<path d="M35.3658 26.5179V26.2611C35.3658 24.9626 35.9333 23.7372 36.8877 22.8105C38.6476 21.1014 39.7329 18.7598 39.7329 16.1761C39.7329 10.721 34.8943 6.34256 29.0832 6.72451C24.1926 7.04607 20.3338 10.6331 19.8881 15.2849C19.6121 18.1623 20.688 20.8041 22.5796 22.7009C23.6103 23.7343 24.2127 25.0881 24.2127 26.514C24.2127 27.3679 24.9389 28.0602 25.8352 28.061L33.7414 28.0649C34.6385 28.0653 35.3658 27.3726 35.3658 26.5179Z" fill="#FF9F1C"/>
<path d="M29.7891 24.4026C29.2101 24.4026 28.919 24.1309 28.919 23.796V20.1289C28.919 18.3642 30.1739 16.6473 32.3619 15.4183C32.777 15.1848 33.44 15.1902 33.8438 15.4311C34.2466 15.6713 34.2368 16.0555 33.8213 16.2889C32.0381 17.291 31.0153 18.6905 31.0153 20.1289V23.796C31.0148 24.1309 30.3681 24.4026 29.7891 24.4026Z" fill="white"/>
<path d="M29.7891 24.4026C29.21 24.4026 28.5632 24.1309 28.5632 23.796V20.1288C28.5632 18.6901 27.5403 17.2905 25.757 16.289C25.3414 16.0555 25.3316 15.6714 25.7344 15.4311C26.1372 15.1905 26.8009 15.1846 27.2165 15.4181C29.4047 16.6471 30.6592 18.3641 30.6592 20.1291V23.7962C30.6597 24.1309 30.3682 24.4026 29.7891 24.4026Z" fill="white"/>
<path d="M29.7892 29.8961C31.0096 29.8961 31.9989 30.8678 31.9989 32.0664L31.9989 33.8297C31.9989 35.0283 31.0096 36 29.7892 36C28.5688 36 27.5794 35.0283 27.5794 33.8297L27.5794 32.0664C27.5794 30.8678 28.5688 29.8961 29.7892 29.8961Z" fill="#B2B2B2"/>
<path d="M24.8172 28.9805C24.8172 28.4749 25.2346 28.0649 25.7494 28.0649H33.8288C34.3436 28.0649 34.761 28.4749 34.761 28.9805C34.761 29.4862 34.3436 29.8961 33.8288 29.8961H25.7494C25.2346 29.8961 24.8172 29.4862 24.8172 28.9805Z" fill="#CCCCCC"/>
<path d="M24.8172 30.8117C24.8172 30.306 25.2346 29.8961 25.7494 29.8961H33.8288C34.3436 29.8961 34.761 30.306 34.761 30.8117C34.761 31.3173 34.3436 31.7273 33.8288 31.7273H25.7494C25.2346 31.7273 24.8172 31.3173 24.8172 30.8117Z" fill="#B2B2B2"/>
<path d="M25.9218 32.6429C25.9218 32.1372 26.3392 31.7273 26.854 31.7273H32.7236C33.2385 31.7273 33.6559 32.1372 33.6559 32.6429C33.6559 33.1485 33.2385 33.5584 32.7236 33.5584H26.854C26.3392 33.5584 25.9218 33.1485 25.9218 32.6429Z" fill="#CCCCCC"/>
</svg>
